<?xml version="1.0" encoding="UTF-8" standalone="no"?>
<!DOCTYPE svg PUBLIC "-//W3C//DTD SVG 1.1//EN" "http://www.w3.org/Graphics/SVG/1.1/DTD/svg11.dtd">
<svg width="100%" height="100%" viewBox="0 0 250 250" version="1.1" xmlns="http://www.w3.org/2000/svg" xmlns:xlink="http://www.w3.org/1999/xlink" xml:space="preserve" xmlns:serif="http://www.serif.com/" style="fill-rule:evenodd;clip-rule:evenodd;stroke-linejoin:round;stroke-miterlimit:2;">
    <g transform="matrix(1.26796,0,0,1.26796,-33.4953,-33.2543)">
        <g transform="matrix(2.86759,2.86759,2.86759,-2.86759,-434.128,197.57)">
            <path d="M68.863,126.119L68.883,94.484L85.406,94.498L85.406,103.096L83.649,103.096C83.649,100.509 82.875,98.653 81.329,97.53C79.995,96.553 77.968,96.065 75.25,96.065L73.395,96.065C73.216,97.839 73.126,99.434 73.126,100.85C73.126,103.796 73.59,105.92 74.518,107.222C75.624,108.785 77.569,109.566 80.353,109.566L82.379,109.566L82.379,111.251L73.395,111.446L73.395,121.065C73.395,121.267 73.365,121.47 73.311,121.671C73.512,121.617 73.715,121.587 73.917,121.587L83.536,121.587L83.731,112.603L85.416,112.603L85.416,114.629C85.416,117.412 86.197,119.357 87.759,120.464C89.062,121.392 91.186,121.856 94.132,121.856C95.548,121.856 97.143,121.766 98.917,121.587L98.917,119.732C98.917,117.014 98.428,114.987 97.452,113.653C96.329,112.106 94.473,111.333 91.885,111.333L91.885,109.576L100.484,109.576L100.498,126.099L68.863,126.119Z" style="fill:white;"/>
            <path d="M68.863,126.218L100.498,126.197C100.524,126.197 100.549,126.187 100.568,126.168C100.586,126.15 100.597,126.125 100.597,126.099L100.583,109.575C100.583,109.521 100.538,109.477 100.484,109.477L91.885,109.477C91.831,109.477 91.787,109.521 91.787,109.576L91.787,111.333C91.787,111.388 91.831,111.432 91.885,111.432C94.435,111.432 96.266,112.187 97.372,113.711L97.372,113.711C98.339,115.033 98.818,117.04 98.818,119.732C98.818,119.732 98.818,121.498 98.818,121.498C97.083,121.671 95.521,121.757 94.132,121.757C91.213,121.757 89.107,121.303 87.817,120.384C86.277,119.293 85.514,117.372 85.514,114.629L85.514,112.603C85.514,112.548 85.47,112.504 85.416,112.504L83.731,112.504C83.677,112.504 83.634,112.547 83.632,112.601L83.439,121.489L73.917,121.489C73.759,121.489 73.601,121.506 73.444,121.538C73.476,121.381 73.493,121.223 73.493,121.065C73.493,121.065 73.493,111.543 73.493,111.543L82.381,111.349C82.435,111.348 82.478,111.304 82.478,111.251L82.478,109.566C82.478,109.512 82.434,109.467 82.379,109.467L80.353,109.467C77.609,109.467 75.689,108.705 74.598,107.165C73.679,105.875 73.225,103.769 73.225,100.85C73.225,99.461 73.311,97.899 73.484,96.164L75.25,96.164C77.942,96.164 79.949,96.643 81.271,97.61L81.271,97.61C82.795,98.716 83.55,100.547 83.55,103.096C83.55,103.151 83.594,103.195 83.649,103.195L85.406,103.195C85.461,103.195 85.505,103.151 85.505,103.096L85.505,94.498C85.505,94.444 85.461,94.399 85.406,94.399L68.883,94.385C68.857,94.385 68.832,94.395 68.813,94.414C68.795,94.432 68.785,94.458 68.785,94.484L68.764,126.119C68.764,126.145 68.775,126.17 68.793,126.189C68.812,126.207 68.837,126.218 68.863,126.218ZM68.863,126.119L68.883,94.484L85.406,94.498L85.406,103.096L83.649,103.096C83.649,100.509 82.875,98.653 81.329,97.53C79.995,96.553 77.968,96.065 75.25,96.065L73.395,96.065C73.216,97.839 73.126,99.434 73.126,100.85C73.126,103.796 73.59,105.92 74.518,107.222C75.624,108.785 77.569,109.566 80.353,109.566L82.379,109.566L82.379,111.251L73.395,111.446L73.395,121.065C73.395,121.267 73.365,121.47 73.311,121.671C73.512,121.617 73.715,121.587 73.917,121.587L83.536,121.587L83.731,112.603L85.416,112.603L85.416,114.629C85.416,117.412 86.197,119.357 87.759,120.464C89.062,121.392 91.186,121.856 94.132,121.856C95.548,121.856 97.143,121.766 98.917,121.587L98.917,119.732C98.917,117.014 98.428,114.987 97.452,113.653C96.329,112.106 94.473,111.333 91.885,111.333L91.885,109.576L100.484,109.576L100.498,126.099L68.863,126.119Z" style="fill:white;"/>
        </g>
        <g transform="matrix(2.95348,0,0,2.95348,-260.041,-189.993)">
            <path d="M130.368,104.773L136.568,110.972L130.368,117.171L124.169,110.972L130.368,104.773Z" style="fill:white;"/>
            <path d="M130.463,104.679L136.662,110.878C136.714,110.93 136.714,111.014 136.662,111.067L130.463,117.266C130.411,117.318 130.326,117.318 130.274,117.266L124.075,111.067C124.023,111.014 124.023,110.93 124.075,110.878L130.274,104.679C130.326,104.627 130.411,104.627 130.463,104.679ZM130.368,104.773L124.169,110.972L130.368,117.171L136.568,110.972L130.368,104.773Z" style="fill:white;"/>
        </g>
    </g>
</svg>
